<svg xmlns="http://www.w3.org/2000/svg" viewBox="0 0 1200 300">
<g transform="translate(52.118,-15.185) scale(0.41482)">
 <defs><clipPath id="jc"><path d="M 547.5,160 Q 547.5,160 547.5,160 L 639.5,160 Q 639.5,160 639.5,160 L 639.5,496.0 A 138.0,138.0 0 0 1 363.5,496.0 L 363.5,447 Q 363.5,447 363.5,447 L 455.5,447 Q 455.5,447 455.5,447 L 455.5,496.0 A 46.0,46.0 0 0 0 547.5,496.0 Z"/></clipPath></defs>
 <g fill="#143D75"><rect x="33.0" y="160" width="92" height="474" rx="0"/><rect x="221.0" y="160" width="92" height="474" rx="0"/><rect x="33.0" y="329.0" width="280.0" height="131.11396867937202"/></g>
 <path d="M 173.00,343.00 L 186.40,381.55 L 227.21,382.39 L 194.68,407.05 L 206.50,446.11 L 173.00,422.80 L 139.50,446.11 L 151.32,407.05 L 118.79,382.39 L 159.60,381.55 Z" fill="#FFFFFF"/>
 <path d="M 547.5,160 Q 547.5,160 547.5,160 L 639.5,160 Q 639.5,160 639.5,160 L 639.5,496.0 A 138.0,138.0 0 0 1 363.5,496.0 L 363.5,447 Q 363.5,447 363.5,447 L 455.5,447 Q 455.5,447 455.5,447 L 455.5,496.0 A 46.0,46.0 0 0 0 547.5,496.0 Z" fill="#B94218"/>
 <g clip-path="url(#jc)"><polygon points="547.5,160 639.5,160 639.5,256.15 547.5,314.35" fill="#143D75"/><polygon points="547.5,314.35 639.5,256.15 639.5,384.85 547.5,443.48" fill="#FFFFFF"/></g>
 <g fill="#B94218"><rect x="689.0" y="160" width="92" height="474" rx="0"/></g>
</g>
<g transform="translate(430,156) scale(0.04755,-0.04755)" fill="#143D75"><g transform="translate(0,0)"><path d="M1046 0V604H432V0H137V1409H432V848H1046V1409H1341V0Z"/></g><g transform="translate(1479,0)"><path d="M1171 542Q1171 279 1025.0 129.5Q879 -20 621 -20Q368 -20 224.0 130.0Q80 280 80 542Q80 803 224.0 952.5Q368 1102 627 1102Q892 1102 1031.5 957.5Q1171 813 1171 542ZM877 542Q877 735 814.0 822.0Q751 909 631 909Q375 909 375 542Q375 361 437.5 266.5Q500 172 618 172Q877 172 877 542Z"/></g><g transform="translate(2730,0)"><path d="M408 1082V475Q408 190 600 190Q702 190 764.5 277.5Q827 365 827 502V1082H1108V242Q1108 104 1116 0H848Q836 144 836 215H831Q775 92 688.5 36.0Q602 -20 483 -20Q311 -20 219.0 85.5Q127 191 127 395V1082Z"/></g><g transform="translate(3981,0)"><path d="M1055 316Q1055 159 926.5 69.5Q798 -20 571 -20Q348 -20 229.5 50.5Q111 121 72 270L319 307Q340 230 391.5 198.0Q443 166 571 166Q689 166 743.0 196.0Q797 226 797 290Q797 342 753.5 372.5Q710 403 606 424Q368 471 285.0 511.5Q202 552 158.5 616.5Q115 681 115 775Q115 930 234.5 1016.5Q354 1103 573 1103Q766 1103 883.5 1028.0Q1001 953 1030 811L781 785Q769 851 722.0 883.5Q675 916 573 916Q473 916 423.0 890.5Q373 865 373 805Q373 758 411.5 730.5Q450 703 541 685Q668 659 766.5 631.5Q865 604 924.5 566.0Q984 528 1019.5 468.5Q1055 409 1055 316Z"/></g><g transform="translate(5120,0)"><path d="M420 -18Q296 -18 229.0 49.5Q162 117 162 254V892H25V1082H176L264 1336H440V1082H645V892H440V330Q440 251 470.0 213.5Q500 176 563 176Q596 176 657 190V16Q553 -18 420 -18Z"/></g><g transform="translate(5802,0)"><path d="M1171 542Q1171 279 1025.0 129.5Q879 -20 621 -20Q368 -20 224.0 130.0Q80 280 80 542Q80 803 224.0 952.5Q368 1102 627 1102Q892 1102 1031.5 957.5Q1171 813 1171 542ZM877 542Q877 735 814.0 822.0Q751 909 631 909Q375 909 375 542Q375 361 437.5 266.5Q500 172 618 172Q877 172 877 542Z"/></g><g transform="translate(7053,0)"><path d="M844 0V607Q844 892 651 892Q549 892 486.5 804.5Q424 717 424 580V0H143V840Q143 927 140.5 982.5Q138 1038 135 1082H403Q406 1063 411.0 980.5Q416 898 416 867H420Q477 991 563.0 1047.0Q649 1103 768 1103Q940 1103 1032.0 997.0Q1124 891 1124 687V0Z"/></g></g>
<g transform="translate(430,245) scale(0.04755,-0.04755)" fill="#143D75"><g transform="translate(0,0)"><path d="M524 -20Q305 -20 187.5 75.0Q70 170 31 382L324 425Q342 316 391.0 263.5Q440 211 526 211Q614 211 659.5 270.0Q705 329 705 439V1178H424V1409H999V446Q999 226 874.0 103.0Q749 -20 524 -20Z"/></g><g transform="translate(1139,0)"><path d="M586 -20Q342 -20 211.0 124.5Q80 269 80 546Q80 814 213.0 958.0Q346 1102 590 1102Q823 1102 946.0 947.5Q1069 793 1069 495V487H375Q375 329 433.5 248.5Q492 168 600 168Q749 168 788 297L1053 274Q938 -20 586 -20ZM586 925Q487 925 433.5 856.0Q380 787 377 663H797Q789 794 734.0 859.5Q679 925 586 925Z"/></g><g transform="translate(2278,0)"><path d="M1313 0H1016L844 660Q832 705 797 882L745 658L571 0H274L-6 1082H258L436 255L450 329L475 446L645 1082H946L1112 446Q1126 394 1153 255L1181 387L1337 1082H1597Z"/></g><g transform="translate(3871,0)"><path d="M143 1277V1484H424V1277ZM143 0V1082H424V0Z"/></g><g transform="translate(4440,0)"><path d="M1055 316Q1055 159 926.5 69.5Q798 -20 571 -20Q348 -20 229.5 50.5Q111 121 72 270L319 307Q340 230 391.5 198.0Q443 166 571 166Q689 166 743.0 196.0Q797 226 797 290Q797 342 753.5 372.5Q710 403 606 424Q368 471 285.0 511.5Q202 552 158.5 616.5Q115 681 115 775Q115 930 234.5 1016.5Q354 1103 573 1103Q766 1103 883.5 1028.0Q1001 953 1030 811L781 785Q769 851 722.0 883.5Q675 916 573 916Q473 916 423.0 890.5Q373 865 373 805Q373 758 411.5 730.5Q450 703 541 685Q668 659 766.5 631.5Q865 604 924.5 566.0Q984 528 1019.5 468.5Q1055 409 1055 316Z"/></g><g transform="translate(5579,0)"><path d="M420 866Q477 990 563.0 1046.0Q649 1102 768 1102Q940 1102 1032.0 996.0Q1124 890 1124 686V0H844V606Q844 891 651 891Q549 891 486.5 803.5Q424 716 424 579V0H143V1484H424V1079Q424 970 416 866Z"/></g><g transform="translate(7399,0)"><path d="M137 0V1409H432V0Z"/></g><g transform="translate(7968,0)"><path d="M844 0V607Q844 892 651 892Q549 892 486.5 804.5Q424 717 424 580V0H143V840Q143 927 140.5 982.5Q138 1038 135 1082H403Q406 1063 411.0 980.5Q416 898 416 867H420Q477 991 563.0 1047.0Q649 1103 768 1103Q940 1103 1032.0 997.0Q1124 891 1124 687V0Z"/></g><g transform="translate(9219,0)"><path d="M473 892V0H193V892H35V1082H193V1195Q193 1342 271.0 1413.0Q349 1484 508 1484Q587 1484 686 1468V1287Q645 1296 604 1296Q532 1296 502.5 1267.5Q473 1239 473 1167V1082H686V892Z"/></g><g transform="translate(9901,0)"><path d="M1171 542Q1171 279 1025.0 129.5Q879 -20 621 -20Q368 -20 224.0 130.0Q80 280 80 542Q80 803 224.0 952.5Q368 1102 627 1102Q892 1102 1031.5 957.5Q1171 813 1171 542ZM877 542Q877 735 814.0 822.0Q751 909 631 909Q375 909 375 542Q375 361 437.5 266.5Q500 172 618 172Q877 172 877 542Z"/></g></g>
</svg>