<svg xmlns="http://www.w3.org/2000/svg" viewBox="15.0 142 784.0 510">
 <defs><clipPath id="jc"><path d="M 547.5,160 Q 547.5,160 547.5,160 L 639.5,160 Q 639.5,160 639.5,160 L 639.5,496.0 A 138.0,138.0 0 0 1 363.5,496.0 L 363.5,447 Q 363.5,447 363.5,447 L 455.5,447 Q 455.5,447 455.5,447 L 455.5,496.0 A 46.0,46.0 0 0 0 547.5,496.0 Z"/></clipPath></defs>
 <g fill="#143D75"><rect x="33.0" y="160" width="92" height="474" rx="0"/><rect x="221.0" y="160" width="92" height="474" rx="0"/><rect x="33.0" y="329.0" width="280.0" height="131.11396867937202"/></g>
 <path d="M 173.00,343.00 L 186.40,381.55 L 227.21,382.39 L 194.68,407.05 L 206.50,446.11 L 173.00,422.80 L 139.50,446.11 L 151.32,407.05 L 118.79,382.39 L 159.60,381.55 Z" fill="#FFFFFF"/>
 <path d="M 547.5,160 Q 547.5,160 547.5,160 L 639.5,160 Q 639.5,160 639.5,160 L 639.5,496.0 A 138.0,138.0 0 0 1 363.5,496.0 L 363.5,447 Q 363.5,447 363.5,447 L 455.5,447 Q 455.5,447 455.5,447 L 455.5,496.0 A 46.0,46.0 0 0 0 547.5,496.0 Z" fill="#B94218"/>
 <g clip-path="url(#jc)"><polygon points="547.5,160 639.5,160 639.5,256.15 547.5,314.35" fill="#143D75"/><polygon points="547.5,314.35 639.5,256.15 639.5,384.85 547.5,443.48" fill="#FFFFFF"/></g>
 <g fill="#B94218"><rect x="689.0" y="160" width="92" height="474" rx="0"/></g>
</svg>